<svg width="135" height="119" viewBox="0 0 135 119" fill="none" xmlns="http://www.w3.org/2000/svg">
<path d="M129.554 46.7729L132.007 41.9359L133.271 46.101L134.378 52.7898C134.484 53.4201 134.558 54.0577 134.608 54.6977L134.889 58.3987C135.074 60.8392 135.029 63.2919 134.751 65.7202L134.474 68.1558C134.096 71.4855 133.295 74.7395 132.094 77.8225L131.899 78.3233C130.341 82.3248 128.377 86.1235 126.048 89.6438C124.131 92.5411 121.966 95.2308 119.581 97.6737L116.036 101.311C114.474 102.914 112.784 104.358 110.989 105.628L107.804 107.878C105.837 109.268 103.748 110.436 101.57 111.369L95.6345 113.907C94.1989 114.52 92.7211 115.014 91.2168 115.38L83.8672 117.176C82.6934 117.461 81.5116 117.698 80.322 117.886L76.0893 118.551C74.2096 118.847 72.3088 118.937 70.4106 118.82L63.0769 118.373C62.289 118.324 61.5038 118.216 60.7266 118.048L51.8621 116.13C51.0637 115.957 50.2732 115.727 49.5013 115.439L40.2323 111.994C39.0902 111.569 37.9746 111.058 36.8959 110.467L32.0156 107.785C31.2991 107.392 30.6197 106.915 29.9931 106.363L21.4592 98.8609V44.733L18.9318 42.6272H15.1406V40.6558H28.2377L44.8298 73.8698L61.2527 41.2396L74.4423 40.6558L74.5163 42.6272L70.096 42.3389L68.2004 44.7086V78.7263L70.096 81.0667L75.1482 81.1546V83.0161L54.3023 82.8915V81.5039H58.7226L61.25 78.7263V48.18L43.5634 83.5853L24.6131 47.4837L25.245 97.4685L30.284 101.898C31.1352 102.645 32.0341 103.324 32.9753 103.928L37.7737 107.003C38.6831 107.587 39.6401 108.083 40.6289 108.484L49.422 112.045C50.5667 112.51 51.7485 112.859 52.9487 113.093L60.5838 114.574C61.4483 114.742 62.3155 114.869 63.1905 114.955L70.556 115.683C71.7986 115.805 73.049 115.8 74.289 115.666L77.8395 115.282C80.6709 114.977 83.4786 114.444 86.236 113.685L90.4342 112.532C91.6081 112.209 92.7581 111.794 93.8764 111.288L98.1698 109.344C101.34 107.91 104.383 106.163 107.267 104.125L109.556 102.508C111.034 101.465 112.427 100.28 113.718 98.9709L117.173 95.4653C119.047 93.5647 120.737 91.4589 122.22 89.1772L123.494 87.2155C125.363 84.3377 126.947 81.2474 128.216 77.9959C129.466 74.7932 130.299 71.4122 130.693 67.953L130.762 67.3496C131.161 63.8294 131.291 60.2774 131.15 56.7327L131.137 56.398C131.079 54.9396 130.92 53.4885 130.667 52.0569L130.101 48.8689L129.543 46.7631L129.554 46.7729Z" fill="black"/>
<path d="M93.0807 43.5012L91.9941 44.9279V45.4653C91.9941 46.5182 92.2241 47.5589 92.6656 48.5043L105.623 76.3024L126.746 32.0903L125.411 30.2947C123.124 27.2191 120.576 24.3706 117.797 21.786C116.494 20.5743 115.137 19.431 113.728 18.3586L112.655 17.5402C109.789 15.3611 106.72 13.4947 103.494 11.9728L99.6477 10.1577C98.1805 9.4639 96.6815 8.8434 95.1587 8.29374L92.1263 7.20175C90.6749 6.67896 89.197 6.24168 87.698 5.89478L86.7357 5.67003C84.7899 5.21809 82.8203 4.87608 80.8402 4.644L77.6809 4.27757L74.6591 3.9893C71.6823 3.70592 68.6869 3.69371 65.7074 3.9551L63.796 4.12122C62.6037 4.22626 61.4166 4.36551 60.2323 4.54385L55.4048 5.26451C53.4511 5.55766 51.5211 6.01204 49.6362 6.6301L44.6924 8.24732C42.6118 8.9289 40.5734 9.74972 38.5906 10.7073L35.3494 12.2733C33.5913 13.1234 31.9046 14.1299 30.3104 15.2854L26.8392 17.8016C24.8485 19.2429 22.9873 20.8699 21.2741 22.663L18.3978 25.6727L17.3746 26.7427C15.7884 28.4015 14.3634 30.2215 13.1182 32.1758L11.0059 35.4908C10.0303 37.0226 9.17906 38.6398 8.4626 40.3254L7.32051 43.0126C6.98211 43.8115 6.67808 44.6298 6.41371 45.4604C5.32184 48.8927 4.67941 52.4643 4.50757 56.0774L4.18504 62.8052C4.11894 64.1928 4.17975 65.5828 4.36745 66.9582C4.63447 68.9052 4.99402 70.8376 5.45139 72.7479L5.89289 74.5899C6.24715 76.0703 6.9028 77.4359 7.44476 78.8528C7.47649 78.9359 7.49499 79.0336 7.49499 79.1533V88.4242L6.68072 87.1466C5.40909 85.1507 4.31458 83.0351 3.41042 80.8267C2.95306 79.7127 2.57236 78.5645 2.26568 77.3944L1.64969 75.0296C1.00462 72.5525 0.544609 70.0265 0.272305 67.4737L0.174488 66.5405C0.0581632 65.4411 0 64.3369 0 63.2303V58.1246C0.0660934 51.6801 1.69464 46.3521 2.0489 44.9132C2.50097 43.4963 3.04559 42.1161 3.68273 40.7822L4.70056 38.6496C5.65231 36.6561 6.77325 34.758 8.05018 32.9795L12.2643 27.0994L12.9411 26.2493C14.7573 23.9676 16.7349 21.8324 18.8551 19.8586L19.8254 18.9547C21.142 17.7283 22.522 16.5777 23.9549 15.5053L28.7744 11.9019C30.4823 10.6267 32.3144 9.54696 34.2417 8.68216L38.7096 6.67896C40.1584 6.02914 41.6362 5.4575 43.1379 4.96647L47.8516 3.42498C50.4689 2.56996 53.147 1.9348 55.8595 1.52927L58.8073 1.08955C60.4834 0.837924 62.1675 0.644933 63.8542 0.510572L67.6744 0.202763C69.3452 0.068402 71.0213 0 72.6948 0H73.4404C76.7107 0 79.9704 0.337124 83.1772 1.00893L85.1706 1.42667L87.082 1.87128C89.8923 2.52599 92.6603 3.3688 95.3675 4.39971L97.5354 5.22542C98.3761 5.54544 99.2089 5.89478 100.028 6.26855L105.464 8.75545C108.282 10.0453 110.976 11.6186 113.509 13.4532L115.616 14.98C117.575 16.3994 119.41 18.0019 121.099 19.7682L124.015 22.8194L130.831 30.6636L104.256 86.2842L82.4502 44.9254L79.9863 43.4988H76.3194L76.2639 41.3588H97.2789L97.4455 43.4988H93.4296" fill="black"/>
</svg>
